# xmcd CD database file
#
# Track frame offsets:
#	150
#	22978
#	47033
#	61896
#	74874
#	98199
#	127074
#	168766
#	201174
#	229873
#
# Disc length: 3303 seconds
#
# Revision: 0
# Processed by: cddbd v1.5.1PL0 Copyright (c) Steve Scherf et al.
# Submitted via: CDex 1.51
#
DISCID=8c0ce50a
DTITLE=Omar Sosa - Ballads
DYEAR=2005
DGENRE=Jazz
TTITLE0=Mis Tres Nostas
TTITLE1=Para Ella
TTITLE2=Fragile
TTITLE3=Twice As Sad
TTITLE4=Gracias Senor
TTITLE5=Para Dos Parados
TTITLE6=Antes De Ir Ve Esto
TTITLE7=Tienes Un Solo
TTITLE8=Raya
TTITLE9=Shirma
EXTD=YEAR: 2005
EXTT0=
EXTT1=
EXTT2=
EXTT3=
EXTT4=
EXTT5=
EXTT6=
EXTT7=
EXTT8=
EXTT9=
PLAYORDER=
